HIERARCHY
ROOT Hips
{
 OFFSET 0.000000 0.000000 0.000000
 CHANNELS 6 Xposition Yposition Zposition Yrotation Xrotation Zrotation
 JOINT Chest
 {
  OFFSET 0.000000 9.585900 0.002600
  CHANNELS 3 Yrotation Xrotation Zrotation
  JOINT Chest2
  {
   OFFSET 0.000000 9.601200 -0.005300
   CHANNELS 3 Yrotation Xrotation Zrotation
   JOINT Chest3
   {
    OFFSET 0.000000 9.561800 0.000000
    CHANNELS 3 Yrotation Xrotation Zrotation
    JOINT Chest4
    {
     OFFSET 0.000000 9.552100 0.000000
     CHANNELS 3 Yrotation Xrotation Zrotation
     JOINT Neck
     {
      OFFSET 0.000000 14.453000 0.000000
      CHANNELS 3 Yrotation Xrotation Zrotation
      JOINT Head
      {
       OFFSET 0.000000 8.936500 -0.011300
       CHANNELS 3 Yrotation Xrotation Zrotation
       End Site
       {
        OFFSET 0.000000 17.073600 -0.006000
       }
      }
     }
     JOINT RightCollar
     {
      OFFSET -2.921100 9.558500 0.000000
      CHANNELS 3 Yrotation Xrotation Zrotation
      JOINT RightShoulder
      {
       OFFSET -13.519700 0.000000 0.000000
       CHANNELS 3 Yrotation Xrotation Zrotation
       JOINT RightElbow
       {
        OFFSET 0.000000 -29.696600 0.000000
        CHANNELS 3 Yrotation Xrotation Zrotation
        JOINT RightWrist
        {
         OFFSET 0.000000 -24.004700 0.000000
         CHANNELS 3 Yrotation Xrotation Zrotation
         End Site
         {
          OFFSET 0.000000 -17.728500 0.000000
         }
        }
       }
      }
     }
     JOINT LeftCollar
     {
      OFFSET 2.921100 9.558500 0.000000
      CHANNELS 3 Yrotation Xrotation Zrotation
      JOINT LeftShoulder
      {
       OFFSET 13.519700 0.000000 0.000000
       CHANNELS 3 Yrotation Xrotation Zrotation
       JOINT LeftElbow
       {
        OFFSET 0.000000 -29.696600 0.000000
        CHANNELS 3 Yrotation Xrotation Zrotation
        JOINT LeftWrist
        {
         OFFSET 0.000000 -24.004700 0.000000
         CHANNELS 3 Yrotation Xrotation Zrotation
         End Site
         {
          OFFSET 0.000000 -17.728500 0.000000
         }
        }
       }
      }
     }
    }
   }
  }
 }
 JOINT RightHip
 {
  OFFSET -7.771700 -0.012900 -0.001300
  CHANNELS 3 Yrotation Xrotation Zrotation
  JOINT RightKnee
  {
   OFFSET 0.000000 -40.869800 0.001200
   CHANNELS 3 Yrotation Xrotation Zrotation
   JOINT RightAnkle
   {
    OFFSET 0.000000 -39.717900 0.002100
    CHANNELS 3 Yrotation Xrotation Zrotation
    JOINT RightToe
    {
     OFFSET 0.000000 -4.965400 11.033500
     CHANNELS 3 Yrotation Xrotation Zrotation
     End Site
     {
      OFFSET 0.000000 -1.423100 5.872300
     }
    }
   }
  }
 }
 JOINT LeftHip
 {
  OFFSET 7.771700 -0.012900 -0.001300
  CHANNELS 3 Yrotation Xrotation Zrotation
  JOINT LeftKnee
  {
   OFFSET 0.000000 -40.869800 0.001200
   CHANNELS 3 Yrotation Xrotation Zrotation
   JOINT LeftAnkle
   {
    OFFSET 0.000000 -39.717900 0.002100
    CHANNELS 3 Yrotation Xrotation Zrotation
    JOINT LeftToe
    {
     OFFSET 0.000000 -4.965400 11.033500
     CHANNELS 3 Yrotation Xrotation Zrotation
     End Site
     {
      OFFSET 0.000000 -1.423100 5.872300
     }
    }
   }
  }
 }
}
MOTION
Frames: 6
Frame Time: 0.008333
0.000000 85.388000 0.000000 0.000000 -5.767877 0.000000 0.000000 11.653817 0.000000 0.000000 -5.885947 0.000000 0.000000 -0.000000 0.000000 0.000000 -0.000000 0.000000 0.000000 12.528835 0.000000 0.000000 0.711642 0.000000 0.000000 -0.000000 0.000000 0.000000 0.000000 -90.000000 0.000000 -2.309062 0.000000 0.000000 2.309062 0.000000 0.000000 -0.000000 0.000000 0.000000 -0.000000 90.000000 0.000000 -2.309062 0.000000 0.000000 2.309062 0.000000 0.000000 8.520406 0.000000 0.000000 1.905762 0.000000 -0.000000 -4.658285 0.000000 0.000000 -0.000000 0.000000 0.000000 8.520406 0.000000 0.000000 1.905762 0.000000 -0.000000 -4.658285 0.000000 0.000000 -0.000000 0.000000
-15.940710 52.113627 31.826494 -179.853054 -38.658660 1.187921 2.125182 25.929540 -1.300943 0.348499 4.273504 -0.200755 0.548936 6.806089 -0.307817 1.651219 21.331814 -0.767326 -1.287543 17.338482 -4.926370 -0.254278 -7.400549 -4.947022 11.984931 10.571931 11.854456 67.076678 -7.325528 -56.450493 130.153631 -28.218710 -165.801899 3.471844 -11.477834 -2.193001 -11.277943 13.700004 -17.487794 -33.741413 -1.880575 36.560233 121.642248 -54.644321 -78.698233 20.721050 -10.813678 5.282795 -8.508588 -44.268725 -2.512356 -51.959427 83.528713 -60.223405 -3.496374 -7.352295 6.892727 0.140227 -0.486222 0.045894 3.071345 -41.608877 -5.099286 36.379722 82.593870 40.758569 -2.668950 -11.011604 -0.748965 0.121981 0.460437 0.065731
-15.941866 52.113416 31.826418 -179.846492 -38.653424 1.186880 2.117633 25.920970 -1.301118 0.354733 4.265143 -0.188222 0.540676 6.809014 -0.315426 1.651638 21.327740 -0.758708 -1.299662 17.323593 -4.928134 -0.256043 -7.394928 -4.955191 11.972283 10.613840 11.917851 66.624659 -7.504997 -56.459207 130.317540 -28.112258 -166.008563 3.249986 -11.521608 -1.834502 -11.249303 13.715906 -17.485215 -33.634732 -1.873603 36.516913 122.784521 -55.057273 -80.035261 20.641372 -10.813941 4.782606 -8.509739 -44.276045 -2.515510 -51.985317 83.525986 -60.247770 -3.500624 -7.344085 6.894381 0.150751 -0.493469 0.048183 3.077572 -41.613505 -5.104797 36.397190 82.591300 40.772467 -2.666511 -11.015481 -0.741190 0.109116 0.465036 0.062796
-15.942749 52.113439 31.826032 -179.837045 -38.648531 1.181791 2.118851 25.912277 -1.288723 0.350790 4.262727 -0.188886 0.542767 6.800974 -0.304941 1.637837 21.329108 -0.759300 -1.312210 17.304320 -4.933507 -0.268376 -7.415707 -4.957947 11.969270 10.642586 11.946370 66.117343 -7.724832 -56.432325 130.552104 -28.006104 -166.273371 3.011419 -11.554206 -1.471095 -11.225989 13.731596 -17.488490 -33.488765 -1.869726 36.480907 123.976959 -55.430204 -81.453948 20.563267 -10.842796 4.227188 -8.515812 -44.282588 -2.516356 -52.013999 83.524852 -60.274279 -3.502238 -7.336052 6.894450 0.149274 -0.500822 0.053131 3.084538 -41.617287 -5.112397 36.388582 82.589912 40.771767 -2.669880 -11.018987 -0.742840 0.117306 0.469731 0.063361
-15.943684 52.114166 31.824798 -179.835468 -38.647816 1.181289 2.124089 25.905674 -1.275018 0.345022 4.263206 -0.193951 0.544041 6.801725 -0.304854 1.640024 21.319726 -0.744295 -1.328511 17.282887 -4.942806 -0.283501 -7.438803 -4.964097 11.967652 10.675022 11.980399 65.564067 -7.955244 -56.399359 130.853423 -27.903711 -166.597447 2.751999 -11.581632 -1.094813 -11.228478 13.744645 -17.503951 -33.296919 -1.859471 36.458035 125.236624 -55.750407 -82.960774 20.492220 -10.896090 3.614300 -8.514892 -44.284979 -2.517052 -52.059930 83.523671 -60.318497 -3.502045 -7.329041 6.894365 0.152313 -0.509111 0.054018 3.093724 -41.614854 -5.117185 36.352908 82.592406 40.741666 -2.666666 -11.027176 -0.745711 0.117929 0.475947 0.066934
-15.947218 52.115464 31.822992 -179.837321 -38.649529 1.197696 2.117193 25.908662 -1.288454 0.344642 4.259905 -0.193699 0.543098 6.785593 -0.293687 1.640346 21.320617 -0.745185 -1.354110 17.224744 -4.953572 -0.281656 -7.427855 -4.974017 11.981072 10.716345 12.025002 64.961225 -8.200594 -56.363538 131.212910 -27.803351 -166.976740 2.468233 -11.609818 -0.696191 -11.194351 13.771383 -17.493316 -33.135694 -1.849024 36.425812 126.582500 -56.006439 -84.550241 20.426493 -10.964430 2.949522 -8.500235 -44.286834 -2.535382 -52.085674 83.526162 -60.347357 -3.521042 -7.296051 6.889536 0.176008 -0.539938 0.066068 3.123006 -41.608582 -5.142555 36.294242 82.598666 40.691925 -2.683970 -11.062537 -0.756134 0.140720 0.506403 0.080602
